<svg id="Layer_1" data-name="Layer 1" xmlns="http://www.w3.org/2000/svg" viewBox="0 0 100.01 36.5"><defs><style>.cls-1{fill:#fe7bbf;stroke-width:0.5px;}.cls-1,.cls-2{stroke:#000;}.cls-1,.cls-2,.cls-3{stroke-miterlimit:10;}.cls-2{fill:#fafafa;}.cls-2,.cls-3{stroke-width:0.25px;}.cls-3{stroke:#fff;}</style></defs><rect class="cls-1" x="0.25" y="0.25" width="36" height="36" rx="8"/><path d="M49.27,18.29A7.18,7.18,0,0,1,44,16.21a7,7,0,0,1-2.08-5.13A7,7,0,0,1,44,5.94a7.12,7.12,0,0,1,5.26-2.08,7.23,7.23,0,0,1,4,1.18,6.18,6.18,0,0,1,2.55,3.18H52.2a3.56,3.56,0,0,0-3-1.33,4,4,0,0,0-3,1.2,4.13,4.13,0,0,0-1.15,3,4.11,4.11,0,0,0,1.16,3,4.05,4.05,0,0,0,3.07,1.19c2,0,3.26-.91,3.61-2.73h-4V9.6h7.26a10.3,10.3,0,0,1-.19,3.85,6.11,6.11,0,0,1-1.41,2.73,6.45,6.45,0,0,1-2.31,1.57A7.86,7.86,0,0,1,49.27,18.29Z" transform="translate(0.25 0.25)"/><path d="M61.63,18.27a5.06,5.06,0,0,1-3.74-1.45,5,5,0,0,1-1.47-3.7,4.91,4.91,0,0,1,1.49-3.66A5.1,5.1,0,0,1,61.63,8a5.55,5.55,0,0,1,2,.37,5.19,5.19,0,0,1,1.69,1.08,4.7,4.7,0,0,1,1.15,1.83,6.62,6.62,0,0,1,.37,2.54H59.31A2,2,0,0,0,60,15.18a2.64,2.64,0,0,0,1.77.54A2.56,2.56,0,0,0,63,15.45a1.44,1.44,0,0,0,.71-.66h3.11a4.63,4.63,0,0,1-1.89,2.52A5.69,5.69,0,0,1,61.63,18.27Zm-.08-7.9a2.2,2.2,0,0,0-1.4.43,2.09,2.09,0,0,0-.76,1.14H63.6a2,2,0,0,0-.8-1.19A2.24,2.24,0,0,0,61.55,10.37Z" transform="translate(0.25 0.25)"/><path d="M71,18.27a5.1,5.1,0,0,1-3.75-1.45,5,5,0,0,1-1.46-3.7A4.91,4.91,0,0,1,67.3,9.46,5.1,5.1,0,0,1,71,8a5.46,5.46,0,0,1,2,.37,5.09,5.09,0,0,1,1.69,1.08,4.59,4.59,0,0,1,1.15,1.83,6.82,6.82,0,0,1,.38,2.54H68.71a2,2,0,0,0,.7,1.35,2.64,2.64,0,0,0,1.77.54,2.53,2.53,0,0,0,1.18-.27,1.44,1.44,0,0,0,.71-.66h3.11a4.58,4.58,0,0,1-1.89,2.52A5.66,5.66,0,0,1,71,18.27ZM71,10.37a2.11,2.11,0,0,0-2.17,1.57H73a2,2,0,0,0-.79-1.19A2.29,2.29,0,0,0,71,10.37Z" transform="translate(0.25 0.25)"/><path d="M83.59,18.06l-3.66-4.13v4.13H77V4.18h3v7.94L82.8,8.81h3.52L82.71,13l4.48,5.07Z" transform="translate(0.25 0.25)"/><path d="M90.37,18.13H87.16l2-4.68L85.11,4.18h3.25l2.44,6.08,2.42-6.08h3.26Z" transform="translate(0.25 0.25)"/><path d="M61.29,34a7.22,7.22,0,0,1-7.22-7.22,7.22,7.22,0,0,1,14.44,0,7.2,7.2,0,0,1-1,3.7l4,3.28H67.09l-1.5-1.2A6.84,6.84,0,0,1,61.29,34Zm0-3a3.88,3.88,0,0,0,1.81-.45l-2-1.62,1.77-2.16L65,28.45a4.39,4.39,0,0,0,.36-1.69,4.17,4.17,0,0,0-1.18-3,3.82,3.82,0,0,0-2.87-1.24,3.86,3.86,0,0,0-2.89,1.24,4.25,4.25,0,0,0,0,5.9A3.86,3.86,0,0,0,61.29,31Z" transform="translate(0.25 0.25)"/><path d="M74.62,34a3.32,3.32,0,0,1-2.75-1.2,5.05,5.05,0,0,1-1-3.25v-5.6h3V29c0,1.51.5,2.26,1.51,2.26,1.23,0,1.85-.86,1.85-2.57V23.91h3v9.83h-3v-1A3,3,0,0,1,74.62,34Z" transform="translate(0.25 0.25)"/><path d="M85.46,34a4.17,4.17,0,0,1-3.24-1.52,5.61,5.61,0,0,1,0-7.23,4.17,4.17,0,0,1,3.24-1.52,3.25,3.25,0,0,1,2.67,1.2v-1h3v9.83h-3v-1A3.25,3.25,0,0,1,85.46,34Zm-1-3.38a2.13,2.13,0,0,0,1.63.68,2.09,2.09,0,0,0,1.62-.68,2.79,2.79,0,0,0,0-3.51,2.09,2.09,0,0,0-1.62-.68,2.13,2.13,0,0,0-1.63.68,2.79,2.79,0,0,0,0,3.51Z" transform="translate(0.25 0.25)"/><path d="M93.85,22.57a1.85,1.85,0,1,1,1.33-3.16,1.85,1.85,0,0,1-1.33,3.16ZM92.38,33.74V23.91h3v9.83Z" transform="translate(0.25 0.25)"/><polyline points="97.04 22.08 97.04 19.24 100.01 19.24 100.01 33.99 97.04 33.99 97.04 22.08"/><path d="M105.3,20.59" transform="translate(0.25 0.25)"/><path class="cls-2" d="M10.51,20.36a7.17,7.17,0,0,1-5.29-2.09,7,7,0,0,1-2.09-5.13A7,7,0,0,1,5.22,8a7.12,7.12,0,0,1,5.25-2.09,7.29,7.29,0,0,1,4,1.18A6.28,6.28,0,0,1,17,10.29h-3.6a3.55,3.55,0,0,0-3-1.34,4,4,0,0,0-3,1.2,4.14,4.14,0,0,0-1.15,3,4.15,4.15,0,0,0,1.16,3,4.07,4.07,0,0,0,3.07,1.2c2.06,0,3.26-.91,3.62-2.73h-4V11.67h7.25a10.47,10.47,0,0,1-.18,3.84,6.11,6.11,0,0,1-1.42,2.73,6.48,6.48,0,0,1-2.31,1.58A7.82,7.82,0,0,1,10.51,20.36Z" transform="translate(0.25 0.25)"/><path class="cls-3" d="M22.58,30.91a7.22,7.22,0,0,1-7.21-7.22,7.22,7.22,0,0,1,7.21-7.22,7.24,7.24,0,0,1,7.22,7.22,7.19,7.19,0,0,1-1,3.7l4,3.28H28.39l-1.5-1.2A6.85,6.85,0,0,1,22.58,30.91Zm0-3a3.85,3.85,0,0,0,1.81-.45l-2-1.62,1.77-2.16,2.1,1.73a4.36,4.36,0,0,0,.36-1.69,4.17,4.17,0,0,0-1.18-3,4,4,0,0,0-5.76,0,4.25,4.25,0,0,0,0,5.9A3.85,3.85,0,0,0,22.58,27.88Z" transform="translate(0.25 0.25)"/><rect x="94.37" y="11.79" width="3.2" height="3.2"/></svg>